PathFileType	4	(X/Y/Z)	D:\TRACE\v60_Jaco2_6-2-23\BothDRS_Motion1_2-v60.trc
DataRate	CameraRate	NumFrames	NumMarkers	Units	OrigDataRate	OrigDataStartFrame	OrigNumFrames
100.00	100.00	      28	9	mm	100.00	2614	      6970
Frame#	Time	front left toe			Front right toe			aft left toe			aft right toe			Arm			FL body			FR body			AL Body			AR Body			
		X1	Y1	Z1	X2	Y2	Z2	X3	Y3	Z3	X4	Y4	Z4	X5	Y5	Z5	X6	Y6	Z6	X7	Y7	Z7	X8	Y8	Z8	X9	Y9	Z9	

2614	26.130	-170.33148	13.26597	-299.98587	215.06778	32.54115	-340.99991	-124.47343	33.82045	301.90704	232.79521	20.84697	309.45807	17.53873	1151.36316	-663.39783	-62.33223	578.22992	-446.20560	97.53114	579.74414	-452.99765	-26.32648	561.48553	498.94714	128.91214	556.76563	492.53894	
2615	26.140	-171.33420	12.87286	-299.77753	213.22618	42.22318	-340.87070	-124.39481	41.70470	301.60297	232.18875	21.18091	309.59839	17.51596	1153.10901	-663.33722	-63.71400	577.48560	-446.72647	96.62943	578.95221	-453.27725	-27.41087	562.45569	498.44580	128.45695	557.58698	492.35355	
2616	26.150	-172.31206	12.53835	-299.94547	212.07253	52.76066	-341.02109	-127.06047	54.63332	300.88040	231.82135	21.40329	309.70419	17.43628	1153.92444	-663.22943	-64.51112	576.95032	-446.87482	95.54893	578.42322	-453.47952	-27.68881	562.73828	498.47626	128.07368	557.96033	492.08261	
2617	26.160	-173.39098	12.36280	-299.66162	211.57965	63.68739	-341.22055	-130.15511	65.30747	300.66534	230.33556	21.25132	309.42419	16.64205	1153.22034	-663.41333	-65.73283	576.65662	-447.11627	94.12154	577.87067	-453.14951	-27.80262	562.70892	498.40826	127.56209	557.77130	491.97644	
2618	26.170	-174.33594	12.12519	-300.15836	212.17964	75.20649	-341.30777	-134.29019	77.22490	300.71564	229.53078	21.20819	309.15726	15.75022	1151.86487	-664.05975	-67.19084	576.49780	-447.29007	93.01289	577.36926	-453.35452	-28.07076	562.45026	498.38483	127.09678	557.13983	491.96350	
2619	26.180	-175.66920	11.68661	-300.03162	212.40056	86.52616	-341.31924	-135.94901	88.20097	300.72525	229.00664	21.41141	309.29233	14.60716	1149.99365	-664.92676	-67.29463	575.83441	-446.57227	92.33973	577.00525	-453.57553	-28.79556	562.15887	498.34753	126.61852	556.46814	491.10327	
2620	26.190	-176.69557	11.32452	-300.00406	211.33723	97.43507	-341.40808	-136.93869	97.93372	301.09384	227.54335	21.24833	309.04880	13.19540	1148.19617	-666.28540	-68.30813	575.42871	-446.35339	91.45036	576.38263	-453.52887	-29.15215	561.91217	498.50677	126.29180	556.11591	490.91663	
2621	26.200	-177.51651	11.07822	-300.06772	210.53458	107.63103	-340.82144	-139.63132	109.70021	301.42606	226.76112	21.47747	308.98627	12.10558	1146.49426	-666.88586	-69.62535	574.90558	-446.25845	90.05742	575.37305	-453.03384	-29.37880	562.06549	498.72495	126.23765	556.36395	491.84256	
2622	26.210	-178.89346	11.09477	-299.83005	209.70119	117.34454	-339.72775	-138.97603	119.05103	302.47723	226.01476	21.76859	308.94611	11.37884	1145.46741	-667.18726	-70.67812	574.21783	-446.18707	89.60341	574.66840	-453.42343	-29.22200	562.16138	499.28818	126.05374	556.50714	491.87976	
2623	26.220	-179.90726	10.60173	-300.07956	208.49994	125.88290	-338.47107	-138.03601	127.34146	304.03467	225.14401	21.73576	308.83789	11.08140	1144.78345	-667.05695	-71.53157	573.30383	-445.76471	88.72016	573.75604	-453.14685	-29.45104	562.63965	499.43500	125.87263	556.86969	492.03220	
2624	26.230	-180.78174	10.37112	-300.04919	207.88518	132.81239	-336.90936	-137.61580	134.65668	305.86020	223.95638	21.57982	308.77588	10.35947	1144.40662	-667.25049	-72.59170	572.23486	-445.47833	87.44196	572.56689	-452.59335	-29.48026	563.32965	499.59940	125.46213	557.41449	492.19287	
2625	26.240	-181.76381	10.26054	-299.90158	207.49371	136.71242	-334.90347	-137.91820	140.56000	307.61017	223.31361	21.95059	308.86279	10.18252	1143.75989	-667.22882	-73.23680	571.24902	-444.68137	87.03272	571.82623	-452.35040	-29.65322	563.91412	500.18918	125.10107	557.84045	492.41425	
2626	26.250	-182.63959	10.07205	-299.83640	207.78145	139.01183	-332.76575	-139.16685	143.46608	309.84412	222.38121	22.01159	308.80414	9.78993	1142.94910	-667.36755	-74.36239	570.66766	-444.28085	85.34054	570.95868	-451.64194	-29.32523	564.22528	501.18240	125.23653	557.99109	491.87802	
2627	26.260	-183.47763	10.19668	-299.58722	207.68564	138.72691	-330.44818	-140.78241	144.01825	311.97711	221.51318	22.04259	308.69794	8.87270	1141.80579	-667.55707	-74.71135	570.31781	-443.42657	85.23730	570.67548	-451.73035	-30.07064	565.12152	501.66324	125.42986	558.61121	493.46390	
2628	26.270	-184.51747	10.22148	-299.69263	207.36913	135.93031	-328.14294	-142.33371	142.12672	314.59708	220.82100	22.00472	308.65720	7.71736	1140.47913	-667.93408	-75.23488	569.95050	-442.72141	84.17066	570.33228	-451.28491	-29.26022	565.01123	501.81021	128.90836	560.09637	496.09686	
2629	26.280	-185.27591	10.21056	-299.79593	206.17891	131.55963	-326.41757	-143.17131	138.95963	316.68503	219.63202	22.04432	308.71051	6.47257	1139.62939	-668.12067	-76.81300	570.21381	-442.57266	83.05085	570.03461	-450.41638	-29.36775	564.91046	502.60001	128.73650	560.15045	496.31009	
2630	26.290	-186.49507	9.74634	-299.70227	205.09999	126.49312	-324.66525	-143.16010	135.04886	318.68442	218.90962	22.11298	308.63040	5.97414	1138.88831	-667.98303	-76.73638	569.60126	-441.61313	82.88006	569.79498	-450.13422	-29.36101	565.45380	503.04874	125.13461	558.87769	494.39856	
2631	26.300	-186.92537	9.46739	-299.65866	204.16263	120.52821	-323.07739	-143.34160	130.31288	320.33432	218.11137	22.06280	308.47476	5.39299	1138.71411	-667.66663	-78.23514	569.44281	-441.48798	82.14591	569.20532	-449.76459	-29.60562	565.73639	503.43594	125.33631	559.27209	495.01563	
2632	26.310	-188.36922	9.79072	-299.40274	202.76341	114.05432	-321.76202	-144.72342	125.00242	321.91821	217.03345	22.14106	308.42590	4.76728	1138.95325	-667.19342	-78.48020	568.96490	-440.56110	80.65163	568.77350	-449.35043	-29.65963	566.08820	503.73572	128.50043	560.74628	497.52313	
2633	26.320	-188.85414	9.54001	-299.19537	201.53336	106.48505	-320.45670	-143.28955	116.24133	323.85693	216.61391	22.34557	308.48022	4.33338	1139.34973	-666.73279	-79.46149	568.91156	-440.53009	80.15828	568.56464	-449.61630	-29.34301	566.00958	504.29669	128.65028	560.79993	497.69595	
2634	26.330	-189.71564	9.23966	-299.24902	200.75388	99.07151	-319.41577	-144.88184	108.56784	325.27686	215.60860	22.14701	308.49396	4.15313	1139.38025	-666.35889	-80.52863	568.57629	-439.96857	79.35567	568.25977	-449.22296	-29.39643	565.93610	504.71713	128.61978	560.68066	497.86313	
2635	26.340	-190.60869	9.07054	-299.31094	200.17447	91.17682	-318.65594	-146.30771	99.78298	326.74384	214.72339	22.08166	308.46368	3.60111	1139.15906	-666.04102	-81.55373	568.62415	-439.94229	77.96925	568.03278	-448.70532	-29.51784	566.09540	504.84305	128.42972	560.45880	497.95508	
2636	26.350	-191.49915	8.93976	-299.38062	199.10304	82.87601	-318.39929	-146.08862	90.00031	327.99121	214.05386	22.16872	308.34000	3.05369	1138.82190	-665.85944	-81.98073	568.35229	-439.30301	77.06790	567.83234	-448.70044	-29.58805	566.01135	505.14841	128.35992	560.23737	498.00299	
2637	26.360	-192.01558	8.71093	-299.42984	197.99358	74.30249	-318.14255	-146.65881	80.73515	328.72830	212.91135	22.03548	308.04120	2.13762	1138.45044	-665.93823	-83.08416	568.42572	-439.36765	76.83948	567.82825	-448.91794	-29.82700	565.93298	505.23062	128.24570	560.08380	498.08945	
2638	26.370	-193.19649	8.74149	-299.25674	196.49170	65.73757	-318.20590	-147.15819	72.11582	328.91260	212.31856	22.30591	308.07190	0.85430	1138.04736	-666.31909	-84.28629	568.41602	-439.38528	76.00447	567.57147	-448.74686	-30.07846	565.97546	505.38712	128.01016	560.04150	498.13916	
2639	26.380	-194.16386	8.81309	-299.31592	195.41718	56.70702	-318.23468	-147.69218	63.01397	329.20081	211.53244	22.45572	308.06122	0.41346	1137.57666	-666.25104	-85.16482	568.38898	-439.25916	74.76993	567.14978	-448.32047	-30.23318	566.01477	505.45578	127.84260	560.07178	498.17630	
2640	26.390	-195.76720	8.98721	-299.34103	194.73726	47.88223	-317.85464	-148.60271	53.99804	328.92145	210.45360	22.51536	308.05804	-0.41392	1137.36536	-666.29095	-86.13913	568.02563	-439.30667	73.96465	566.90204	-448.34756	-30.40995	566.10095	505.41913	127.65095	560.03516	498.10422	
2641	26.400	-196.58423	8.77271	-299.48904	195.29289	39.38309	-317.20276	-149.74329	45.68541	328.77954	209.49997	22.43066	307.91016	-1.96979	1137.03467	-666.88519	-86.19405	567.47662	-438.98734	73.58690	566.61652	-448.82019	-30.53639	566.07379	505.40891	127.48747	559.98743	498.02386	
